<?xml version="1.0" encoding="UTF-8"?><svg xmlns="http://www.w3.org/2000/svg" xmlns:xlink="http://www.w3.org/1999/xlink" contentScriptType="text/ecmascript" width="375pt" zoomAndPan="magnify" contentStyleType="text/css" viewBox="0 0 375 374.999991" height="374.999991pt" preserveAspectRatio="xMidYMid meet" version="1.2"><g xml:id="surface1" id="surface1"><path style=" stroke:none;fill-rule:nonzero;fill:rgb(53.329468%,72.938538%,53.729248%);fill-opacity:1;" d="M 374.960938 179.820312 L 230.023438 180.230469 L 223.941406 156.976562 L 198.355469 157.261719 C 198.328125 156.746094 198.304688 156.207031 198.253906 155.59375 C 197.945312 150.484375 180.726562 153.078125 180.726562 153.078125 C 163.300781 150.5625 164.636719 141.808594 164.636719 141.808594 C 176.414062 131.621094 174.257812 111.316406 174.824219 110.417969 C 175.386719 109.519531 181.597656 104.132812 183.265625 102.898438 C 184.933594 101.640625 187.039062 103.207031 188.167969 103.566406 C 196.429688 106.3125 193.914062 99.382812 193.914062 99.382812 C 196.328125 98.636719 194.761719 95.816406 194.761719 95.816406 C 197.25 96.121094 196.277344 91.785156 196.53125 91.785156 C 196.789062 91.785156 198.535156 92.476562 199.203125 91.9375 C 201.28125 90.246094 197.535156 84.367188 197.535156 84.367188 C 197.535156 84.367188 198.378906 84.445312 198.765625 81.671875 C 199.125 78.902344 197.535156 73.226562 197.535156 73.226562 L 200.792969 73.714844 C 200.792969 73.714844 200.046875 59.496094 181.339844 59.007812 C 162.632812 58.523438 164.96875 78.796875 164.96875 83.367188 C 164.96875 87.960938 165.277344 89.476562 163.480469 92.710938 L 160.582031 92.195312 C 160.582031 92.195312 140.359375 94.171875 128.222656 114.167969 C 123.292969 122.304688 116.777344 131.082031 110.308594 139.523438 C 96.144531 147.867188 77.386719 156.257812 77.386719 156.257812 C 77.386719 156.257812 86.46875 156.492188 96.425781 157.722656 C 92.628906 162.855469 89.472656 167.449219 87.574219 171.121094 C 80.902344 183.953125 86.570312 202.355469 86.570312 202.355469 L 84.980469 233.386719 C 77.460938 224.96875 37.558594 220.785156 37.558594 220.785156 C 37.070312 217.707031 36.53125 219.683594 29.472656 214.496094 C 22.441406 209.3125 15.949219 223.761719 7.996094 235.800781 C 0.0390625 247.839844 7.996094 264.339844 11.511719 255.253906 C 15.027344 246.167969 31.707031 239.136719 31.707031 239.136719 L 37.457031 240.242188 C 53.390625 240.984375 83.390625 257.460938 95.066406 257.28125 C 106.742188 257.105469 116.75 219.863281 116.75 219.863281 C 119.726562 221.375 125.449219 241.679688 125.449219 241.679688 C 116.007812 253.894531 110.617188 275.402344 105.253906 287.082031 C 99.890625 298.761719 102.277344 312.054688 102.277344 314.289062 C 102.277344 316.523438 121.730469 311.722656 135.816406 313.953125 C 149.90625 316.1875 150.445312 307.101562 143.234375 307.28125 C 135.996094 307.460938 123.039062 303.378906 122.472656 301.710938 C 121.910156 300.042969 124.707031 293.011719 124.707031 293.011719 C 124.347656 276.890625 150.648438 247.785156 153.242188 238.339844 C 155.832031 228.894531 134.636719 190.5 134.277344 188.394531 C 133.917969 186.289062 136.765625 180.976562 136.765625 180.976562 C 140.359375 167.859375 150.957031 162.753906 150.957031 162.753906 L 153.855469 163.984375 C 159.117188 167.320312 183.496094 166.398438 185.550781 166.398438 C 187.601562 166.398438 187.960938 164.292969 191.296875 167.425781 C 193.195312 169.195312 194.761719 167.167969 195.789062 165.039062 L 217.988281 164.78125 L 239.464844 246.941406 L 247.855469 280.949219 C 244.445312 284.515625 242.363281 289.367188 242.363281 294.679688 C 242.363281 305.664062 251.296875 314.621094 262.304688 314.621094 C 273.289062 314.621094 282.242188 305.691406 282.242188 294.679688 C 282.242188 290.058594 280.679688 285.824219 278.035156 282.4375 L 311.933594 282.4375 C 309.292969 285.824219 307.726562 290.058594 307.726562 294.679688 C 307.726562 305.664062 316.65625 314.621094 327.664062 314.621094 C 338.675781 314.621094 347.605469 305.691406 347.605469 294.679688 C 347.605469 283.695312 338.675781 274.738281 327.664062 274.738281 C 326.894531 274.738281 326.152344 274.789062 325.40625 274.863281 L 325.40625 274.738281 L 254.324219 274.738281 L 248.113281 249.789062 L 356.585938 249.789062 Z M 359.511719 208.386719 L 340.085938 208.671875 L 345.601562 187.597656 L 365.003906 187.546875 Z M 267.386719 214.855469 L 296.101562 214.445312 L 296.101562 242.089844 L 274.492188 242.089844 Z M 269.207031 242.089844 L 246.1875 242.089844 L 239.183594 215.265625 L 262.097656 214.933594 Z M 266.050781 209.75 L 260.328125 187.828125 L 296.101562 187.726562 L 296.101562 209.3125 Z M 301.234375 214.367188 L 333.386719 213.90625 L 326.046875 242.089844 L 301.234375 242.089844 Z M 301.234375 209.234375 L 301.234375 187.726562 L 340.265625 187.625 L 334.746094 208.773438 Z M 255.042969 187.855469 L 260.789062 209.824219 L 237.875 210.160156 L 232.074219 187.933594 Z M 274.519531 294.628906 C 274.519531 301.378906 269.027344 306.871094 262.277344 306.871094 C 255.53125 306.871094 250.039062 301.378906 250.039062 294.628906 C 250.039062 287.878906 255.53125 282.386719 262.277344 282.386719 C 269.027344 282.410156 274.519531 287.902344 274.519531 294.628906 Z M 339.855469 294.628906 C 339.855469 301.378906 334.363281 306.871094 327.613281 306.871094 C 320.863281 306.871094 315.375 301.378906 315.375 294.628906 C 315.375 287.878906 320.863281 282.386719 327.613281 282.386719 C 334.363281 282.386719 339.855469 287.902344 339.855469 294.628906 Z M 331.359375 242.089844 L 338.75 213.828125 L 358.175781 213.546875 L 350.65625 242.089844 Z M 331.359375 242.089844 "/></g></svg>